<svg xmlns="http://www.w3.org/2000/svg" xml:space="preserve" width="210mm" height="297mm" viewBox="0 0 210 297"><defs><clipPath id="a" clipPathUnits="userSpaceOnUse"><path d="M1947.812 1774.099h600.235v600.125h-600.235z"/></clipPath><clipPath id="b" clipPathUnits="userSpaceOnUse"><path d="M0 0h3372v2386H0Z"/></clipPath><clipPath id="c" clipPathUnits="userSpaceOnUse"><path d="M1947.812 1774.099h600.235v600.125h-600.235z"/></clipPath><clipPath id="d" clipPathUnits="userSpaceOnUse"><path d="M0 0h3372v2386H0Z"/></clipPath><clipPath id="e" clipPathUnits="userSpaceOnUse"><path d="M1947.812 1774.099h600.235v600.125h-600.235z"/></clipPath><clipPath id="f" clipPathUnits="userSpaceOnUse"><path d="M0 0h3372v2386H0Z"/></clipPath><clipPath id="g" clipPathUnits="userSpaceOnUse"><path d="M1947.812 1774.099h600.235v600.125h-600.235z"/></clipPath><clipPath id="h" clipPathUnits="userSpaceOnUse"><path d="M0 0h3372v2386H0Z"/></clipPath><clipPath id="i" clipPathUnits="userSpaceOnUse"><path d="M1947.812 1774.099h600.235v600.125h-600.235z"/></clipPath><clipPath id="j" clipPathUnits="userSpaceOnUse"><path d="M0 0h3372v2386H0Z"/></clipPath><clipPath id="k" clipPathUnits="userSpaceOnUse"><path d="M1947.812 1774.099h600.235v600.125h-600.235z"/></clipPath><clipPath id="l" clipPathUnits="userSpaceOnUse"><path d="M0 0h3372v2386H0Z"/></clipPath><clipPath id="m" clipPathUnits="userSpaceOnUse"><path d="M1947.812 1774.099h600.235v600.125h-600.235z"/></clipPath><clipPath id="n" clipPathUnits="userSpaceOnUse"><path d="M0 0h3372v2386H0Z"/></clipPath><clipPath id="o" clipPathUnits="userSpaceOnUse"><path d="M1947.812 1774.099h600.235v600.125h-600.235z"/></clipPath><clipPath id="p" clipPathUnits="userSpaceOnUse"><path d="M0 0h3372v2386H0Z"/></clipPath><clipPath id="q" clipPathUnits="userSpaceOnUse"><path d="M1947.812 1774.099h600.235v600.125h-600.235z"/></clipPath><clipPath id="r" clipPathUnits="userSpaceOnUse"><path d="M0 0h3372v2386H0Z"/></clipPath></defs><g style="stroke-width:1.76166"><path d="m829.586 552.382-12.476 1.486-6.647 29.238a121 121 0 0 0-24.32 8.892l-24.112-17.384-10.354 7.113 7.416 28.453a121 121 0 0 0-17.575 19.524l-28.97-4.008-5.864 11.11 19.458 21.525a121 121 0 0 0-6.402 25.702l-27.272 9.892-.028 12.563 27.23 10.013a121 121 0 0 0 6.357 25.678l-19.628 21.486 5.811 11.139 28.967-3.866a121 121 0 0 0 17.54 19.537l-7.575 28.47 10.323 7.162 24.15-17.227a121 121 0 0 0 24.323 8.95l6.516 29.273 12.466 1.542 13.524-27.105v-.055a121 121 0 0 0 25.328-3.324l.08.354 19.512 23.167 11.757-4.429-.621-30.283-.282-.521a121 121 0 0 0 20.812-14.626l.563.656 28.043 11.448 8.353-9.385-14.626-26.525-.906-.608a121 121 0 0 0 11.764-22.458l1.087.434 30.152-2.9 3.032-12.188-25.275-16.692-1.351-.146c.508-4.297.787-8.618.833-12.945-.004-4.132-.22-8.262-.646-12.372l1.22-.128 25.35-16.578-2.98-12.202-30.134-3.036-1.163.459a121 121 0 0 0-11.583-22.542l.903-.6 14.744-26.46-8.308-9.423-28.096 11.32-.59.683a121 121 0 0 0-20.753-14.685l.316-.58.757-30.283-11.736-4.48-19.617 23.08-.07.302a121 121 0 0 0-25.334-3.47zm6.794 68.17c38.037-1.5 71.865 24.003 80.893 60.984 10.482 42.936-15.828 86.24-58.765 96.72-42.934 10.48-86.236-15.83-96.716-58.764-10.482-42.936 15.828-86.24 58.764-96.72a80 80 0 0 1 15.824-2.22" style="fill:#ab1b93;fill-opacity:1;stroke:#ab1b93;stroke-width:7.92745;stroke-linecap:round;stroke-linejoin:round;stroke-miterlimit:4;stroke-dasharray:none;stroke-dashoffset:0;stroke-opacity:1" transform="matrix(.38008 0 0 .38012 -214.093 -61.546)"/><g style="stroke-width:1.76166" transform="matrix(.38008 0 0 .38012 -214.102 -61.896)"><circle cx="813.301" cy="701.436" r="20.609" style="fill:#ab1b93;fill-opacity:1;stroke:#ab1b93;stroke-width:7.6573;stroke-linecap:round;stroke-linejoin:round;stroke-miterlimit:4;stroke-dasharray:none;stroke-dashoffset:0;stroke-opacity:1"/><circle cx="865.807" cy="701.436" r="20.609" style="fill:#ab1b93;fill-opacity:1;stroke:#ab1b93;stroke-width:7.6573;stroke-linecap:round;stroke-linejoin:round;stroke-miterlimit:4;stroke-dasharray:none;stroke-dashoffset:0;stroke-opacity:1"/></g></g><g style="fill:#0033a0;fill-opacity:1;stroke-width:1.64525"><g clip-path="url(#a)" style="fill:#0033a0;fill-opacity:1;stroke-width:1.64525" transform="matrix(.16082 0 0 .16082 -256.504 -249.828)"><path d="M1556.344 1518.008c-2.231 1.691-9.977 6.512-21.629 6.512-21.086 0-35.453-13.29-35.453-33.547 0-20.141 15.234-33.543 35.949-33.543 8.059 0 17.285 2.48 22.434 4.687-1.075 2.383-1.961 5.528-2.336 7.5l-.563.184c-3.984-4.41-10.391-8.227-19.867-8.227-12.027 0-25.871 9.738-25.871 29.156 0 18.911 14.105 28.958 26.719 28.958 11.328 0 16.753-5.29 21.621-9.399l.375.375z" clip-path="url(#b)" style="fill:#0033a0;fill-opacity:1;fill-rule:nonzero;stroke:none;stroke-width:1.64525" transform="scale(1.33333)"/></g><g clip-path="url(#c)" style="fill:#0033a0;fill-opacity:1;stroke-width:1.64525" transform="matrix(.16082 0 0 .16082 -256.504 -249.828)"><path d="M1608.574 1519.883c0-1.422.121-2.883.223-3.598-6.395.59-23.953 1.121-30.801 1.219-.117-1.707-.266-21.984-.098-25.117 2.739 0 17.211.187 23.676.843-.187-.937-.281-2.324-.281-3.261s.094-2.617.281-3.555c-5.531.469-12.613.938-23.676.938 0-2.344.192-19.438.286-23.465 12.179 0 23.211.758 29.382 1.218a24 24 0 0 1-.222-3.23c0-1.277.086-2.316.222-3.199-3.246.219-13.734.472-19.359.472-5.621 0-14.301-.191-19.922-.472.371 7.969.75 16.117.75 24.176v16.113c0 8.062-.379 16.215-.75 24.367 5.715-.281 14.488-.469 20.207-.469h.828c1.957.01 4.442.035 6.996.078 4.434.086 9.114.219 12.481.391a24 24 0 0 1-.223-3.449" clip-path="url(#d)" style="fill:#0033a0;fill-opacity:1;fill-rule:nonzero;stroke:none;stroke-width:1.64525" transform="scale(1.33333)"/></g><g clip-path="url(#e)" style="fill:#0033a0;fill-opacity:1;stroke-width:1.64525" transform="matrix(.16082 0 0 .16082 -256.504 -249.828)"><path d="M1635.84 1488.184c7.738-.161 17.902-2.614 17.902-13.305 0-9.317-8.156-12.277-14.527-12.277-4.313 0-7.121.281-9.09.468-.281 6.84-.563 13.129-.563 19.875v5.153c.93.125 5.321.101 6.278.086m-6.278 3.429v7.453c0 8.055.372 16.207.75 24.266-1.593-.285-4.476-.312-5.07-.312-.586 0-3.469.027-5.062.312.375-8.059.75-16.211.75-24.266v-16.121c0-8.058-.375-16.207-.75-24.269 3.562.285 8.07.472 11.629.472 3.562 0 7.125-.472 10.683-.472 10.594 0 20.297 3.129 20.297 14.918 0 12.48-12.434 16.961-19.559 17.898 4.594 5.715 21.043 25.746 26.481 31.84-1.875-.285-5.016-.312-5.871-.312s-4.09.027-5.871.312c-3.703-5.648-15.571-23.426-23.633-31.723h-4.774" clip-path="url(#f)" style="fill:#0033a0;fill-opacity:1;fill-rule:nonzero;stroke:none;stroke-width:1.64525" transform="scale(1.33333)"/></g><g clip-path="url(#g)" style="fill:#0033a0;fill-opacity:1;stroke-width:1.64525" transform="matrix(.16082 0 0 .16082 -256.504 -249.828)"><path d="M1735.453 1458.645a23.7 23.7 0 0 1-4.109.343c-1.633 0-3.039-.176-3.992-.343.41 7.679 1.117 21.878 1.117 31.195 0 7.008 0 13.129-.098 16.594-3.406-3.625-42.512-44.086-46.484-48.407l-3.071-.031c.141 5.965.313 12.434.313 24.238 0 15.114-.211 31.192-.984 41.098a23.7 23.7 0 0 1 4.109-.344c1.637 0 3.039.172 3.992.344-.41-7.676-1.117-21.883-1.117-31.191 0-7.012 0-14.227.098-17.692 3.41 3.629 42.734 44.641 46.488 49.727l3.07.027c-.14-5.961-.316-12.656-.316-24.461 0-15.113.215-31.191.984-41.097" clip-path="url(#h)" style="fill:#0033a0;fill-opacity:1;fill-rule:nonzero;stroke:none;stroke-width:1.64525" transform="scale(1.33333)"/></g><g clip-path="url(#i)" style="fill:#0033a0;fill-opacity:1;stroke-width:1.64525" transform="matrix(.16082 0 0 .16082 -256.504 -249.828)"><path d="M1564.867 1627.445c-18.418-29.136-23.656-57.261-24.39-78.789h-8.512c.711 23.485 6.41 48.11 19.156 72.239 3 2.425 10.059 5.511 13.746 6.55" clip-path="url(#j)" style="fill:#0033a0;fill-opacity:1;fill-rule:nonzero;stroke:none;stroke-width:1.64525" transform="scale(1.33333)"/></g><g clip-path="url(#k)" style="fill:#0033a0;fill-opacity:1;stroke-width:1.64525" transform="matrix(.16082 0 0 .16082 -256.504 -249.828)"><path d="M1908.777 1336.973s-211.777-1.676-279.3-1.641c-10.567.01-17.665.754-19.954.898-83.406 5.403-146.136 78.528-146.414 158.274-.078 23.184 6.102 49.308 16.125 84.578 13.246 46.594 28.766 100.039 28.766 100.039h8.461l-31.273-105.484.234-.157c22.973 44.372 75.933 80.016 136.027 80.016 32.43 0 62.508-9.074 86.203-25.793l.207.195-139.121 148.012h10.864s97.687-103.91 130.918-139.191c25.464-27.031 38.691-44.453 44.226-53.492 6.352-10.368 26.524-40.254 25.766-84.274l.273-.019 60.961 276.976h8.75s-51.148-226.711-61.074-274.125c-9.766-46.652-21.305-75.594-33.758-92.097-4.277-2.383-10.953-5.094-14.098-5.829 18.075 22.797 31.579 56.719 31.579 90.661 0 83.082-67.61 150.675-150.707 150.675-83.098 0-150.704-67.593-150.704-150.675 0-83.086 67.848-150.68 150.75-150.68 36.852 0 71.008 13.512 97.262 35.769 5.074.7 11.875 2.286 15.938 3.75l.031-.086c-18.863-18.808-42.422-32.789-68.629-40.144v-.215l241.695 1.508v-7.449z" clip-path="url(#l)" style="fill:#0033a0;fill-opacity:1;fill-rule:nonzero;stroke:none;stroke-width:1.64525" transform="scale(1.33333)"/></g><g clip-path="url(#m)" style="fill:#0033a0;fill-opacity:1;stroke-width:1.64525" transform="matrix(.16082 0 0 .16082 -256.504 -249.828)"><path d="M1586.004 1654.254c-5.387-.797-12.121-2.703-16.168-4.442 18.141 20.645 43.105 37.161 67.613 46.43l6.43-6.824c-26.586-8.977-45.906-23.402-57.875-35.164" clip-path="url(#n)" style="fill:#0033a0;fill-opacity:1;fill-rule:nonzero;stroke:none;stroke-width:1.64525" transform="scale(1.33333)"/></g><g clip-path="url(#o)" style="fill:#0033a0;fill-opacity:1;stroke-width:1.64525" transform="matrix(.16082 0 0 .16082 -256.504 -249.828)"><path d="M1807.719 1642.191c-26.899 32.926-68.668 55.098-116.649 55.067-10.304 0-20.297-1.156-28.632-2.852l-6.887 7.309c13.172 3.043 24.844 4.187 36.004 4.187 49.359 0 91.582-23.031 118.457-53.34z" clip-path="url(#p)" style="fill:#0033a0;fill-opacity:1;fill-rule:nonzero;stroke:none;stroke-width:1.64525" transform="scale(1.33333)"/></g><g clip-path="url(#q)" style="fill:#0033a0;fill-opacity:1;stroke-width:1.64525" transform="matrix(.16082 0 0 .16082 -256.504 -249.828)"><path d="m1863.773 1374.762-14.515 149.855h-.274c-2.054-28.285-16.164-62.07-33.582-83.429-30.234-37.071-74.601-59.458-124.433-59.458-47.524 0-89.86 21.082-118.989 54.129l6.672 5.286c27.516-31.114 66.938-51.055 112.313-51.055 55.234 0 100.234 28.305 125.402 66.785 22.461 34.332 29.906 78.332 24.703 110.566-1.758 10.891-5.711 32.063-20.218 56.047l2.539 11.16c17.797-27.582 26.828-52.128 33.875-114.882 5.406-48.141 14.687-145.012 14.687-145.012l-8.18.01z" clip-path="url(#r)" style="fill:#0033a0;fill-opacity:1;fill-rule:nonzero;stroke:none;stroke-width:1.64525" transform="scale(1.33333)"/></g></g></svg>