<?xml version="1.0" encoding="UTF-8" standalone="no"?>
<svg
   xmlns:dc="http://purl.org/dc/elements/1.1/"
   xmlns:cc="http://creativecommons.org/ns#"
   xmlns:rdf="http://www.w3.org/1999/02/22-rdf-syntax-ns#"
   xmlns:svg="http://www.w3.org/2000/svg"
   xmlns="http://www.w3.org/2000/svg"
   xmlns:sodipodi="http://sodipodi.sourceforge.net/DTD/sodipodi-0.dtd"
   xmlns:inkscape="http://www.inkscape.org/namespaces/inkscape"
   inkscape:version="1.0beta1 (fe3e306, 2019-09-17)"
   height="350"
   width="400"
   sodipodi:docname="twitter.svg"
   version="1.1"
   viewBox="0 0 400 350"
   data-name="Logo — FIXED"
   id="Logo_FIXED">
  <metadata
     id="metadata846">
    <rdf:RDF>
      <cc:Work
         rdf:about="">
        <dc:format>image/svg+xml</dc:format>
        <dc:type
           rdf:resource="http://purl.org/dc/dcmitype/StillImage" />
        <dc:title>Twitter_Logo_Blue</dc:title>
      </cc:Work>
    </rdf:RDF>
  </metadata>
  <sodipodi:namedview
     inkscape:current-layer="Logo_FIXED"
     inkscape:window-maximized="0"
     inkscape:window-y="23"
     inkscape:window-x="0"
     inkscape:cy="560"
     inkscape:cx="400"
     inkscape:zoom="0.35"
     showgrid="false"
     id="namedview844"
     inkscape:window-height="907"
     inkscape:window-width="1600"
     inkscape:pageshadow="2"
     inkscape:pageopacity="0"
     guidetolerance="10"
     gridtolerance="10"
     objecttolerance="10"
     borderopacity="1"
     inkscape:document-rotation="0"
     bordercolor="#666666"
     pagecolor="#ffffff" />
  <defs
     id="defs835">
    <style
       id="style833">.cls-1{fill:none;}.cls-2{fill:#1da1f2;}</style>
  </defs>
  <title
     id="title837">Twitter_Logo_Blue</title>
  <rect
     y="0"
     x="0"
     id="rect839"
     height="400"
     width="400"
     class="cls-1" />
  <path
     style="stroke-width:1.59073"
     inkscape:connector-curvature="0"
     id="path841"
     d="m 126.22187,336.56897 c 150.06962,0 232.15137,-124.33158 232.15137,-232.15137 0,-3.53142 0,-7.046941 -0.23861,-10.546551 A 166.00875,166.00875 0 0 0 398.84145,51.637124 162.8591,162.8591 0 0 1 351.9785,64.474328 81.874956,81.874956 0 0 0 387.8495,19.345272 163.5113,163.5113 0 0 1 336.03937,39.149881 81.668161,81.668161 0 0 0 196.99352,113.56431 231.64234,231.64234 0 0 1 28.837279,28.316999 81.652253,81.652253 0 0 0 54.098097,137.23439 80.984146,80.984146 0 0 1 17.065866,127.0219 c 0,0.33405 0,0.68401 0,1.03397 a 81.620439,81.620439 0 0 0 65.458605,79.98199 81.461365,81.461365 0 0 1 -36.841344,1.39984 81.684068,81.684068 0 0 0 76.227863,56.66186 163.7181,163.7181 0 0 1 -101.329608,34.9961 166.08829,166.08829 0 0 1 -19.4228325,-1.17715 230.99014,230.99014 0 0 0 125.0633205,36.58683"
     class="cls-2" />
</svg>
